<svg width="20" height="23" viewBox="0 0 20 23" fill="none" xmlns="http://www.w3.org/2000/svg">
<path d="M2.5 19.75H6.25V13.5C6.25 13.1458 6.37 12.8492 6.61 12.61C6.85 12.3708 7.14667 12.2508 7.5 12.25H12.5C12.8542 12.25 13.1513 12.37 13.3913 12.61C13.6313 12.85 13.7508 13.1467 13.75 13.5V19.75H17.5V8.5L10 2.875L2.5 8.5V19.75ZM0 19.75V8.5C0 8.10417 0.0887498 7.72917 0.26625 7.375C0.44375 7.02083 0.688334 6.72917 1 6.5L8.5 0.875C8.9375 0.541667 9.4375 0.375 10 0.375C10.5625 0.375 11.0625 0.541667 11.5 0.875L19 6.5C19.3125 6.72917 19.5575 7.02083 19.735 7.375C19.9125 7.72917 20.0008 8.10417 20 8.5V19.75C20 20.4375 19.755 21.0263 19.265 21.5163C18.775 22.0063 18.1867 22.2508 17.5 22.25H12.5C12.1458 22.25 11.8492 22.13 11.61 21.89C11.3708 21.65 11.2508 21.3533 11.25 21V14.75H8.75V21C8.75 21.3542 8.63 21.6512 8.39 21.8912C8.15 22.1312 7.85333 22.2508 7.5 22.25H2.5C1.8125 22.25 1.22417 22.0054 0.735 21.5163C0.245833 21.0271 0.000833333 20.4383 0 19.75Z" fill="#7B1113"/>
</svg>
