<svg width="26" height="26" viewBox="0 0 26 26" fill="none" xmlns="http://www.w3.org/2000/svg">
<path d="M24.25 13.0001C24.2536 15.2335 23.5893 17.417 22.3425 19.2701C21.3143 20.8038 19.9239 22.0606 18.2944 22.9292C16.665 23.7978 14.8465 24.2515 13 24.2501C11.1535 24.2515 9.33504 23.7978 7.70556 22.9292C6.07607 22.0606 4.68573 20.8038 3.6575 19.2701C2.67841 17.8106 2.05488 16.142 1.83688 14.3981C1.61889 12.6542 1.81249 10.8835 2.40218 9.22793C2.99187 7.57235 3.96124 6.07794 5.23258 4.86452C6.50392 3.6511 8.04187 2.75241 9.72313 2.2405C11.4044 1.72859 13.1822 1.6177 14.9141 1.91671C16.6459 2.21572 18.2836 2.91632 19.6959 3.96235C21.1082 5.00838 22.2557 6.37073 23.0466 7.94021C23.8374 9.50968 24.2496 11.2426 24.25 13.0001Z" stroke="#7B1113" stroke-width="2"/>
<path d="M14.2499 9.25C14.2499 9.58152 14.1182 9.89946 13.8838 10.1339C13.6494 10.3683 13.3315 10.5 12.9999 10.5V13C13.9945 13 14.9483 12.6049 15.6516 11.9017C16.3549 11.1984 16.7499 10.2446 16.7499 9.25H14.2499ZM12.9999 10.5C12.6684 10.5 12.3505 10.3683 12.1161 10.1339C11.8816 9.89946 11.7499 9.58152 11.7499 9.25H9.24994C9.24994 10.2446 9.64503 11.1984 10.3483 11.9017C11.0516 12.6049 12.0054 13 12.9999 13V10.5ZM11.7499 9.25C11.7499 8.91848 11.8816 8.60054 12.1161 8.36612C12.3505 8.1317 12.6684 8 12.9999 8V5.5C12.0054 5.5 11.0516 5.89509 10.3483 6.59835C9.64503 7.30161 9.24994 8.25544 9.24994 9.25H11.7499ZM12.9999 8C13.3315 8 13.6494 8.1317 13.8838 8.36612C14.1182 8.60054 14.2499 8.91848 14.2499 9.25H16.7499C16.7499 8.25544 16.3549 7.30161 15.6516 6.59835C14.9483 5.89509 13.9945 5.5 12.9999 5.5V8ZM4.45744 20.32L3.25869 19.9637L3.06494 20.6175L3.50869 21.1337L4.45744 20.32ZM21.5424 20.32L22.4924 21.1337L22.9349 20.6175L22.7412 19.9637L21.5424 20.32ZM9.24994 18H16.7499V15.5H9.24994V18ZM9.24994 15.5C7.90376 15.4996 6.59342 15.9338 5.51391 16.7381C4.4344 17.5424 3.64343 18.6737 3.25869 19.9637L5.65494 20.6763C5.88615 19.9026 6.36093 19.2242 7.00865 18.742C7.65638 18.2598 8.44244 17.9996 9.24994 18V15.5ZM12.9999 23C11.5568 23.0016 10.1305 22.6901 8.81945 22.0869C7.50842 21.4837 6.34387 20.6033 5.40619 19.5063L3.50869 21.1337C4.68105 22.5044 6.13667 23.6045 7.77523 24.3583C9.41379 25.1121 11.1963 25.5016 12.9999 25.5V23ZM16.7499 18C18.4462 18 19.8824 19.1275 20.3449 20.6775L22.7412 19.9637C22.3565 18.6739 21.5645 17.5427 20.4852 16.7385C19.406 15.9342 18.0959 15.4999 16.7499 15.5V18ZM20.5937 19.5063C19.656 20.6033 18.4915 21.4837 17.1804 22.0869C15.8694 22.6901 14.4431 23.0016 12.9999 23V25.5C14.8036 25.5016 16.5861 25.1121 18.2246 24.3583C19.8632 23.6045 21.3201 22.5044 22.4924 21.1337L20.5937 19.5063Z" fill="#7B1113"/>
</svg>
