<svg width="26" height="25" viewBox="0 0 26 25" fill="none" xmlns="http://www.w3.org/2000/svg">
<path fill-rule="evenodd" clip-rule="evenodd" d="M4.25 2.5C3.91848 2.5 3.60054 2.6317 3.36612 2.86612C3.1317 3.10054 3 3.41848 3 3.75V16.25C3 16.5815 3.1317 16.8995 3.36612 17.1339C3.60054 17.3683 3.91848 17.5 4.25 17.5H13.2125C13.4708 16.7681 13.9497 16.1343 14.5832 15.686C15.2168 15.2377 15.9739 14.9969 16.75 14.9969C17.5261 14.9969 18.2832 15.2377 18.9168 15.686C19.5503 16.1343 20.0292 16.7681 20.2875 17.5H21.75C22.0815 17.5 22.3995 17.3683 22.6339 17.1339C22.8683 16.8995 23 16.5815 23 16.25V3.75C23 3.41848 22.8683 3.10054 22.6339 2.86612C22.3995 2.6317 22.0815 2.5 21.75 2.5H20.2875C20.0292 3.23192 19.5503 3.86571 18.9168 4.31401C18.2832 4.76232 17.5261 5.00306 16.75 5.00306C15.9739 5.00306 15.2168 4.76232 14.5832 4.31401C13.9497 3.86571 13.4708 3.23192 13.2125 2.5H4.25ZM0.5 3.75C0.5 2.75544 0.895088 1.80161 1.59835 1.09835C2.30161 0.395088 3.25544 0 4.25 0H14.25C14.5815 0 14.8995 0.131696 15.1339 0.366117C15.3683 0.600537 15.5 0.918479 15.5 1.25C15.5 1.58152 15.6317 1.89946 15.8661 2.13388C16.1005 2.3683 16.4185 2.5 16.75 2.5C17.0815 2.5 17.3995 2.3683 17.6339 2.13388C17.8683 1.89946 18 1.58152 18 1.25C18 0.918479 18.1317 0.600537 18.3661 0.366117C18.6005 0.131696 18.9185 0 19.25 0H21.75C22.7446 0 23.6984 0.395088 24.4017 1.09835C25.1049 1.80161 25.5 2.75544 25.5 3.75V16.25C25.5 17.2446 25.1049 18.1984 24.4017 18.9017C23.6984 19.6049 22.7446 20 21.75 20H19.25C18.9185 20 18.6005 19.8683 18.3661 19.6339C18.1317 19.3995 18 19.0815 18 18.75C18 18.4185 17.8683 18.1005 17.6339 17.8661C17.3995 17.6317 17.0815 17.5 16.75 17.5C16.4185 17.5 16.1005 17.6317 15.8661 17.8661C15.6317 18.1005 15.5 18.4185 15.5 18.75C15.5 19.0815 15.3683 19.3995 15.1339 19.6339C14.8995 19.8683 14.5815 20 14.25 20H4.25C3.25544 20 2.30161 19.6049 1.59835 18.9017C0.895088 18.1984 0.5 17.2446 0.5 16.25V3.75ZM16.75 6.25C17.0815 6.25 17.3995 6.3817 17.6339 6.61612C17.8683 6.85054 18 7.16848 18 7.5V8.125C18 8.45652 17.8683 8.77446 17.6339 9.00888C17.3995 9.2433 17.0815 9.375 16.75 9.375C16.4185 9.375 16.1005 9.2433 15.8661 9.00888C15.6317 8.77446 15.5 8.45652 15.5 8.125V7.5C15.5 7.16848 15.6317 6.85054 15.8661 6.61612C16.1005 6.3817 16.4185 6.25 16.75 6.25ZM18 11.875C18 11.5435 17.8683 11.2255 17.6339 10.9911C17.3995 10.7567 17.0815 10.625 16.75 10.625C16.4185 10.625 16.1005 10.7567 15.8661 10.9911C15.6317 11.2255 15.5 11.5435 15.5 11.875V12.5C15.5 12.8315 15.6317 13.1495 15.8661 13.3839C16.1005 13.6183 16.4185 13.75 16.75 13.75C17.0815 13.75 17.3995 13.6183 17.6339 13.3839C17.8683 13.1495 18 12.8315 18 12.5V11.875Z" fill="#7B1113"/>
</svg>
